Complete name                    : Lone.Star.1996.HDTVRip.720p.x264.AC3-2MBout.mkv
File size                        : 4.37 GiB
Duration                         : 2h 15mn
Overall bit rate                 : 4,624 Kbps


Video
Format                           : AVC
Codec ID                         : V_MPEG4/ISO/AVC
Duration                         : 2h 15mn
Bit rate                         : 4,236 Kbps
Width                            : 1,280 pixels
Height                           : 720 pixels
Display aspect ratio             : 16:9
Frame rate                       : 23.976 fps
Bit depth                        : 8 bits
Scan type                        : Progressive
Bits/(Pixel*Frame)               : 0.192
Stream size                      : 3.92 GiB (90%)


Audio
Format                           : AC-3
Codec ID                         : A_AC3
Duration                         : 2h 15mn
Bit rate mode                    : Constant
Bit rate                         : 384 Kbps
Channel(s)                       : 6 channels
Sampling rate                    : 48.0 KHz
Bit depth                        : 16 bits
Stream size                      : 372 MiB (8%)
Language                         : English